<?xml version="1.0" encoding="utf-8"?>
<!-- Generator: Adobe Illustrator 18.0.0, SVG Export Plug-In . SVG Version: 6.00 Build 0)  -->
<!DOCTYPE svg PUBLIC "-//W3C//DTD SVG 1.1//EN" "http://www.w3.org/Graphics/SVG/1.1/DTD/svg11.dtd">

<svg width="729px" height="361px" viewBox="0 0 729 361" version="1.1" xmlns="http://www.w3.org/2000/svg" xmlns:xlink="http://www.w3.org/1999/xlink">
    <defs>
        <linearGradient x1="49.9999939%" y1="98.4390866%" x2="49.9999939%" y2="20.3165869%" id="linearGradient-1">
            <stop stop-color="#078FF8" offset="0%"></stop>
            <stop stop-color="#02DACD" offset="100%"></stop>
        </linearGradient>
        <linearGradient x1="49.9999579%" y1="395.15307%" x2="49.9999579%" y2="-224.413991%" id="linearGradient-2">
            <stop stop-color="#078FF8" offset="0%"></stop>
            <stop stop-color="#02DACD" offset="100%"></stop>
        </linearGradient>
        <linearGradient x1="49.9999579%" y1="136.686544%" x2="49.9999579%" y2="-482.880517%" id="linearGradient-3">
            <stop stop-color="#078FF8" offset="0%"></stop>
            <stop stop-color="#02DACD" offset="100%"></stop>
        </linearGradient>
        <linearGradient x1="49.9999579%" y1="651.41425%" x2="49.9999579%" y2="31.8471894%" id="linearGradient-4">
            <stop stop-color="#078FF8" offset="0%"></stop>
            <stop stop-color="#02DACD" offset="100%"></stop>
        </linearGradient>
        <linearGradient x1="49.9999105%" y1="521.911857%" x2="49.9999105%" y2="-92.2541424%" id="linearGradient-5">
            <stop stop-color="#078FF8" offset="0%"></stop>
            <stop stop-color="#02DACD" offset="100%"></stop>
        </linearGradient>
        <linearGradient x1="49.9999543%" y1="263.075162%" x2="49.9999543%" y2="-351.090837%" id="linearGradient-6">
            <stop stop-color="#078FF8" offset="0%"></stop>
            <stop stop-color="#02DACD" offset="100%"></stop>
        </linearGradient>
        <linearGradient x1="-495.386786%" y1="183.708207%" x2="262.611253%" y2="7.52316595%" id="linearGradient-7">
            <stop stop-color="#078FF8" offset="0%"></stop>
            <stop stop-color="#02DACD" offset="100%"></stop>
        </linearGradient>
    </defs>
    <g id="Page-1" stroke="none" stroke-width="1" fill="none" fill-rule="evenodd">
        <g id="logolab">
            <g id="Group">
                <path d="M173,360.3 C162.7,360.3 152.5,360.1 142.2,360.4 C137.4,360.6 134.7,358.5 132.5,354.7 C125.6,342.8 118.7,330.8 111.8,319 C109.8,315.5 107.6,312.1 105.9,308.5 C104.6,305.8 102.6,304.8 99.7,304.9 C81.9,305 64.1,304.7 46.3,305.1 C39.4,305.2 34.8,303.2 31.3,296.7 C21.9,279.5 11.8,262.7 2,245.7 C-0.2,242 1.02140518e-14,238.4 2.2,234.6 C11.9,217.8 21.5,201.1 31.4,184.4 C32.6,182.3 32.6,180.7 31.4,178.7 C22.2,162.9 13.2,147 3.9,131.1 C0.7,125.6 -0.3,120.9 3.4,114.9 C13.7,97.9 23.4,80.6 33.3,63.4 C35.3,60 38.3,58.5 42.3,58.5 C60.8,58.6 79.2,58.4 97.6,58.7 C101.4,58.7 103.5,57.3 105.3,54.1 C114.3,38.3 123.5,22.6 132.4,6.8 C134.7,2.7 137.9,0.8 142.8,0.8 C163.3,1 183.9,1 204.4,0.8 C208.2,0.8 210.6,2 212.6,5.4 C222,21.8 231.6,38.2 241,54.7 C242.9,58.1 245.1,59.5 249,59.4 C267.2,59.2 285.4,59.4 303.6,59.2 C307.5,59.2 309.9,60.6 311.8,63.9 C322.2,82.1 332.6,100.1 343.1,118.2 C345,121.4 344.9,124.7 343.1,127.8 C332.7,145.9 322.2,164 311.8,182.1 C309.6,185.9 306.2,187.2 302,187.2 C284.1,187.1 266.1,187.3 248.2,187.1 C244.2,187 241.8,188.3 239.8,191.8 C231.7,206.1 223.4,220.4 215,234.6 C213.4,237.3 214.1,239.4 215.5,241.8 C224.9,257.9 234.1,274 243.5,290 C246,294.3 245.7,298 243.3,302 C235,316.1 226.9,330.3 218.7,344.5 C216.4,348.4 214.2,352.4 212.2,356.4 C210.8,359.1 208.7,360.3 205.7,360.3 C194.6,360.2 183.8,360.3 173,360.3 Z M172.8,128.7 C164.2,128.7 155.7,128.8 147.1,128.7 C144.2,128.7 142.3,129.6 140.8,132.2 C132.5,146.9 124,161.4 115.5,176 C113.8,179 113.8,181.4 115.5,184.3 C124.1,199 132.6,213.7 141.1,228.4 C142.7,231.3 144.7,232.4 148,232.3 C164.2,232.1 180.4,232.1 196.7,232.3 C200.7,232.4 202.9,231 204.7,227.6 C213.1,212.7 221.8,197.9 230.4,183.1 C232,180.3 231.6,178.1 230.1,175.5 C221.7,161.2 213.3,146.8 205.2,132.4 C203.6,129.5 201.6,128.4 198.3,128.5 C189.7,128.8 181.2,128.7 172.8,128.7 Z M172.3,116.2 C181,116.2 189.7,116.1 198.4,116.3 C201.4,116.3 203.2,115.3 204.6,112.6 C206,109.7 207.8,106.9 209.4,104.1 C216.3,92.2 223.2,80.3 230.1,68.4 C231.5,66 232,63.8 230.4,61.2 C221.7,46.3 213.1,31.3 204.3,16.5 C203.4,15.1 201.3,13.7 199.8,13.7 C181.9,13.5 163.9,13.5 146,13.7 C144.5,13.7 142.3,14.9 141.6,16.1 C132.6,31.3 123.8,46.7 115,61.9 C113.7,64.2 113.7,66 115.1,68.4 C124,83.5 132.6,98.7 141.6,113.8 C142.5,115.2 144.9,116.2 146.7,116.3 C155.1,116.4 163.7,116.2 172.3,116.2 Z M173.5,244.8 C165.3,244.8 157.1,245 148.9,244.7 C145.2,244.6 143,245.9 141.1,249.1 C132.8,263.8 124.3,278.3 115.8,292.9 C113.9,296 114.4,298.6 116.1,301.6 C124.4,315.8 132.7,330.1 140.9,344.4 C142.6,347.4 144.6,348.5 148.1,348.5 C164.5,348.3 180.8,348.3 197.1,348.5 C200.6,348.5 202.6,347.3 204.2,344.4 C212.9,329.3 221.6,314.3 230.3,299.3 C231.7,296.9 231.6,294.8 230.2,292.4 C221.7,277.8 213.2,263.2 204.9,248.6 C203.3,245.9 201.5,244.7 198.4,244.8 C190.1,245 181.8,244.9 173.5,244.8 Z M72.6,71.1 C63.9,71.1 55.2,70.9 46.5,71.2 C44.9,71.3 42.5,72.3 41.7,73.6 C32.7,88.9 23.8,104.3 14.9,119.7 C13.5,122.1 13.8,124.1 15.1,126.2 C24.1,141.8 33.3,157.4 42.2,173 C43.5,175.3 45.1,176.4 47.7,176.4 C64.1,176.3 80.7,176.3 97.1,176.4 C99.7,176.4 101.5,175.5 102.8,173.2 C112,157.1 121.4,141.1 130.6,124.9 C131.3,123.7 131.3,121.5 130.6,120.3 C121.9,104.9 112.9,89.7 104.2,74.5 C102.8,72 101,71.1 98.2,71.1 C89.7,71.1 81.1,71.1 72.6,71.1 Z M73.5,188.8 C64.5,188.8 55.6,188.6 46.6,189 C44.9,189.1 42.5,190.2 41.6,191.7 C32.6,206.7 24,222 15.1,237.1 C13.6,239.6 13.8,241.5 15.2,243.9 C24,258.9 32.7,273.9 41.3,289 C42.8,291.7 44.6,292.6 47.5,292.6 C64.1,292.5 80.7,292.5 97.4,292.6 C100.4,292.6 102.4,291.7 104,288.9 C113,273.2 122.2,257.7 131,242.1 C131.9,240.6 131.9,237.9 131,236.5 C122.7,221.8 114.2,207.3 105.8,192.6 C104.3,190 102.5,188.9 99.6,189 C90.9,188.8 82.2,188.8 73.5,188.8 Z M272.4,71.8 C264,71.8 255.6,72 247.1,71.7 C243.7,71.6 241.6,72.7 239.9,75.8 C231.7,90.2 223.4,104.6 215,118.9 C213.5,121.4 213.9,123.4 215.2,125.8 C224,140.9 232.8,156.1 241.5,171.2 C242.9,173.5 244.6,174.7 247.4,174.6 C264,174.5 280.6,174.5 297.2,174.6 C300.2,174.6 302,173.5 303.4,170.9 C312,155.9 320.5,141 329.4,126.2 C330.8,123.9 330.9,122.1 329.6,119.8 C320.9,105.1 312.3,90.3 303.9,75.4 C302.4,72.7 300.7,71.7 297.7,71.7 C289.3,71.9 280.9,71.8 272.4,71.8 Z" id="Shape" fill="url(#linearGradient-1)" fill-rule="nonzero"></path>
                <path d="M128.2,182.7 C128.1,178.6 129.7,176.8 132.4,175.9 C135.8,174.9 138.2,176.7 139.8,179.4 C142.8,184.5 145.7,189.8 148.7,194.9 C151.7,200.2 154.9,205.4 157.8,210.7 C160.1,214.7 159.3,218.2 155.9,220.1 C152.9,221.9 149.4,220.9 147.1,217 C141,206.6 135,196.2 129.1,185.7 C128.5,184.6 128.3,183.1 128.2,182.7 Z" id="Path" fill="url(#linearGradient-2)"></path>
                <path d="M128.2,299.9 C128.1,295.8 129.7,294 132.4,293.1 C135.8,292.1 138.2,293.9 139.8,296.6 C142.8,301.7 145.7,307 148.7,312.1 C151.7,317.4 154.9,322.6 157.8,327.9 C160.1,331.9 159.3,335.4 155.9,337.3 C152.9,339.1 149.4,338.1 147.1,334.2 C141,323.8 135,313.4 129.1,302.9 C128.5,301.8 128.3,300.3 128.2,299.9 Z" id="Path" fill="url(#linearGradient-3)"></path>
                <path d="M128.2,66.5 C128.1,62.4 129.7,60.6 132.4,59.7 C135.8,58.7 138.2,60.5 139.8,63.2 C142.8,68.3 145.7,73.6 148.7,78.7 C151.7,84 154.9,89.2 157.8,94.5 C160.1,98.5 159.3,102 155.9,103.9 C152.9,105.7 149.4,104.7 147.1,100.8 C141,90.4 135,80 129.1,69.5 C128.5,68.4 128.3,66.9 128.2,66.5 Z" id="Path" fill="url(#linearGradient-4)"></path>
                <path d="M273.8,161.8 C267.7,161.8 261.6,161.7 255.6,161.8 C251.5,161.9 248.8,160.2 246.9,156.6 C241.4,146.8 235.6,137.1 230.1,127.2 C229.1,125.3 228.2,122.6 228.7,120.7 C229.2,118.9 231.6,117 233.5,116.3 C236.6,115.3 238.9,117.6 240.4,120.2 C243.7,125.7 246.8,131.2 249.9,136.7 C251.6,139.7 253.6,142.7 255.1,145.8 C256.4,148.4 258.2,149.2 261,149.2 C270.7,149.1 280.4,149.1 290.2,149.2 C292,149.2 293.9,149.4 295.6,149.9 C298.7,150.9 300.3,153.3 299.7,156.5 C299.1,159.6 297.2,161.6 293.9,161.6 C287,161.8 280.4,161.8 273.8,161.8 Z" id="Path" fill="url(#linearGradient-5)"></path>
                <path d="M73.9,280.2 C67.8,280.2 61.7,280.1 55.7,280.2 C51.6,280.3 48.9,278.6 47,275 C41.5,265.2 35.7,255.5 30.2,245.6 C29.2,243.7 28.3,241 28.8,239.1 C29.3,237.3 31.7,235.4 33.6,234.7 C36.7,233.7 39,236 40.5,238.6 C43.8,244.1 46.9,249.6 50,255.1 C51.7,258.1 53.7,261.1 55.2,264.2 C56.5,266.8 58.3,267.6 61.1,267.6 C70.8,267.5 80.5,267.5 90.3,267.6 C92.1,267.6 94,267.8 95.7,268.3 C98.8,269.3 100.4,271.7 99.8,274.9 C99.2,278 97.3,280 94,280 C87.1,280.2 80.5,280.1 73.9,280.2 C73.9,280.1 73.9,280.2 73.9,280.2 Z" id="Path" fill="url(#linearGradient-6)"></path>
                <path d="M39.2,143.5 C36.2,138.2 33.2,132.9 30.1,127.7 C28,124.2 28.1,121 30.3,117.5 C36.1,107.9 41.5,98 47.4,88.3 C48.5,86.5 50.4,84.3 52.3,83.8 C54.1,83.4 57,84.4 58.5,85.7 C60.9,87.9 60,91 58.6,93.6 C55.5,99.2 52.3,104.6 49,110.1 C47.2,113.1 45.6,116.3 43.7,119.2 C42.1,121.6 42.3,123.6 43.8,126 C48.7,134.4 53.6,142.8 58.4,151.2 C59.3,152.8 60.1,154.5 60.5,156.2 C61.2,159.4 59.9,161.9 56.8,163 C53.8,164 51.1,163.4 49.4,160.5 C45.9,155 42.6,149.2 39.2,143.5 C39.3,143.4 39.2,143.5 39.2,143.5 Z" id="Path" fill="url(#linearGradient-7)"></path>
            </g>
            <g id="Group" transform="translate(270.000000, 221.000000)" fill="#B6B3B3">
                <path d="M0,78.1 L7.5,69.3 C13.3,75.1 21.3,78.9 29.1,78.9 C38.9,78.9 44.4,74.3 44.4,67.5 C44.4,60.1 38.9,57.8 31.4,54.5 L20.2,49.7 C12.4,46.4 3.7,40.2 3.7,28.5 C3.7,15.7 14.9,6.2 30.3,6.2 C39.8,6.2 48.7,10.2 54.8,16.4 L48.1,24.5 C43,20 37.4,17.2 30.3,17.2 C22.1,17.2 16.7,21.2 16.7,27.7 C16.7,34.6 23.2,37.3 29.8,39.9 L40.9,44.6 C50.5,48.7 57.4,54.6 57.4,66.5 C57.4,79.5 46.6,90 28.9,90 C17.7,90 7.3,85.6 0,78.1 Z" id="Path"></path>
                <path d="M67.2,58.4 C67.2,38.2 80.7,26.5 95.7,26.5 C110.7,26.5 124.2,38.2 124.2,58.4 C124.2,78.4 110.7,90 95.7,90 C80.7,90 67.2,78.4 67.2,58.4 Z M111.2,58.4 C111.2,45.5 105.3,37 95.7,37 C86.2,37 80.3,45.6 80.3,58.4 C80.3,71.2 86.2,79.6 95.7,79.6 C105.2,79.6 111.2,71.2 111.2,58.4 Z" id="Shape" fill-rule="nonzero"></path>
                <path d="M139,74.4 L139,0.9 L151.5,0.9 L151.5,75 C151.5,78.4 153,79.6 154.6,79.6 C155.1,79.6 155.6,79.6 156.7,79.4 L158.3,89 C156.8,89.5 154.6,90 151.5,90 C142.4,90 139,84.2 139,74.4 Z" id="Path"></path>
                <path d="M168.2,72.5 C168.2,59.5 179.2,52.8 204.4,50.1 C204.3,43.1 201.8,36.9 192.8,36.9 C186.4,36.9 180.5,39.8 175.3,43.1 L170.6,34.5 C176.9,30.5 185.3,26.6 195,26.6 C210.1,26.6 217,36.2 217,52.2 L217,88.6 L206.7,88.6 L205.6,81.7 L205.3,81.7 C199.8,86.4 193.3,90.1 186.1,90.1 C175.6,90 168.2,83.2 168.2,72.5 Z M204.4,72.9 L204.4,58.1 C186.5,60.3 180.4,64.8 180.4,71.6 C180.4,77.5 184.5,80 189.9,80 C195.2,80 199.5,77.4 204.4,72.9 Z" id="Shape" fill-rule="nonzero"></path>
                <path d="M235,28.1 L245.3,28.1 L246.3,39 L246.6,39 C250.9,31.2 257.3,26.6 263.8,26.6 C266.8,26.6 268.8,27 270.6,27.9 L268.3,38.9 C266.2,38.2 264.7,37.9 262.2,37.9 C257.3,37.9 251.3,41.3 247.5,50.9 L247.5,88.6 L235,88.6 L235,28.1 Z" id="Path"></path>
                <polygon id="Path" points="281.1 7.6 293.9 7.6 293.9 77.8 328.1 77.8 328.1 88.6 281.1 88.6"></polygon>
                <path d="M337.8,72.5 C337.8,59.5 348.8,52.8 374,50.1 C373.9,43.1 371.4,36.9 362.5,36.9 C356.1,36.9 350.2,39.8 345,43.1 L340.3,34.5 C346.6,30.5 355,26.6 364.7,26.6 C379.8,26.6 386.7,36.2 386.7,52.2 L386.7,88.6 L376.4,88.6 L375.3,81.7 L375,81.7 C369.5,86.4 363,90.1 355.8,90.1 C345.1,90 337.8,83.2 337.8,72.5 Z M373.9,72.9 L373.9,58.1 C356,60.3 349.9,64.8 349.9,71.6 C349.9,77.5 354,80 359.4,80 C364.7,80 369,77.4 373.9,72.9 Z" id="Shape" fill-rule="nonzero"></path>
                <path d="M416,82.3 L415.7,82.3 L414.5,88.6 L404.6,88.6 L404.6,0.9 L417.1,0.9 L417.1,24.1 L416.8,34.4 C422,29.9 428.5,26.5 434.8,26.5 C450.1,26.5 458.8,38.7 458.8,57.3 C458.8,78.1 446.4,90 432.7,90 C427.2,90 421.1,87.2 416,82.3 Z M445.7,57.5 C445.7,44.9 441.6,37 431.5,37 C426.8,37 422.1,39.4 417.1,44.4 L417.1,74 C421.7,78.1 426.6,79.5 430.3,79.5 C439.1,79.5 445.7,71.7 445.7,57.5 Z" id="Shape" fill-rule="nonzero"></path>
            </g>
        </g>
    </g>
</svg>
